<svg xmlns="http://www.w3.org/2000/svg" viewBox="0 0 447.973 447.973" xml:space="preserve"><path style="fill:#ee746c" d="M224.061 1452.41c-33.913 0-65.824-8.262-94.094-22.625l279.438-279.533c14.383 28.285 22.656 60.221 22.656 94.156 0 114.969-93.03 208.002-208 208.002" transform="translate(0 -1020.36)"/><path style="fill:#fff" d="M115.467 1421.631a208.35 208.35 0 0 1-68.656-68.721l285.75-285.748a208.3 208.3 0 0 1 68.719 68.656z" transform="translate(0 -1020.36)"/><path style="fill:#ee746c" d="M38.655 1338.379c-14.328-28.242-22.594-60.102-22.594-93.969 0-114.969 93.03-208.002 208-207.998 33.868 0 65.727 8.264 93.969 22.594L38.655 1338.381z" transform="translate(0 -1020.36)"/><path style="fill:#ebfeff" d="M127.163 1402.537a185.9 185.9 0 0 1-61.26-61.316l254.969-254.969a185.9 185.9 0 0 1 61.316 61.262z" transform="translate(0 -1020.36)"/><path style="fill:#5a3392" d="m341.698 1178.028 23.976-23.977-11.339-11.34-23.976 23.977zm-36.023 36.023 23.976-23.977-11.339-11.34-23.976 23.979zm-72.047 72.047 24.095-24.094-11.339-11.221-23.976 23.977zm36.023-36.024 23.976-23.979-11.22-11.338-24.095 23.977zm108.071-108.072 23.976-23.977-11.339-11.338-23.976 24.094L377.722 1142zm-180 180 23.976-23.977-11.339-11.338-23.976 24.094L197.722 1322zm-36.024 36.026 23.976-23.977-11.339-11.34-23.976 23.979zm-36.023 36.023 23.976-23.977-11.339-11.34-23.976 23.977zm-32.008 32.008 19.961-19.961-11.22-11.34-20.079 19.961zm207.992-287.951 23.976-24.096-11.22-11.221-24.095 23.979 11.339 11.34zm-36.024 35.904 24.095-23.977-11.339-11.34-23.976 24.096 11.22 11.219zm-71.929 72.047 23.976-23.977-11.339-11.34-23.976 23.977zm36.024-36.024 23.976-23.977-11.339-11.34-23.976 23.979zm107.953-107.953 23.976-23.979-11.339-11.338-23.976 23.977zm-180 180 23.976-23.979-11.339-11.338-23.976 23.977zm-36.024 36.024 23.976-24.094-11.22-11.221-24.094 23.979 11.339 11.338zm-36.023 35.906 24.094-23.977-11.339-11.338-23.976 24.094zm-32.008 32.008 20.079-19.961-11.339-11.34-19.961 20.08 11.22 11.219z" transform="translate(0 -1020.36)"/><path style="fill:#fb9761" d="M229.717 1437.41c103.553 0 187.344-83.793 187.344-187.346 0-30.566-7.452-59.334-20.406-84.811l-251.688 251.779c25.462 12.941 54.205 20.378 84.75 20.378" transform="translate(0 -1020.36)"/><path style="fill:#fff" d="M213.373 1423.223a8 8 0 1 1 0-15.998 8 8 0 1 1 0 15.998m30.344-3.219a7.982 7.982 0 0 1-8.031-10.219 7.98 7.98 0 0 1 6.937-5.752c23.238-2.539 40.232-7.66 56.469-25.686a8.011 8.011 0 0 1 11.906 10.719c-19.115 21.223-41.683 28.154-66.594 30.875q-.344.015-.688 0z" transform="translate(0 -1020.36)"/><path style="fill:#fb9761" d="M50.68 1324.237c-12.986-25.598-20.477-54.473-20.477-85.166 0-104.201 84.316-188.52 188.517-188.518 30.696 0 59.57 7.492 85.167 20.479L50.68 1324.239z" transform="translate(0 -1020.36)"/><path style="fill:#5a3392" d="M241.176 1467.672c52.681-4.055 103.954-26.678 143.25-67 78.591-80.643 85.056-207.266 15.094-295.5s-194.752-110.795-291.188-52.658a8 8 0 0 0-2.945 10.924 8 8 0 0 0 11.227 2.763c89.651-54.048 205.335-33.12 270.375 48.906s59.031 199.436-14.031 274.404-190.263 83.998-273.938 21.094-107.595-178.018-55.875-269.031a8 8 0 0 0-2.729-10.98 8 8 0 0 0-11.178 3.075c-55.635 97.902-29.852 222.053 60.156 289.719 45.004 33.834 99.1 48.338 151.781 44.281z" transform="translate(0 -1020.36)"/><path style="fill:#5a3392" d="M52.332 1120.86a8 8 0 0 0 6.719-3.217 208 208 0 0 1 28.094-29.938 8.001 8.001 0 1 0-10.532-12.031 224 224 0 0 0-30.25 32.219 8 8 0 0 0 5.969 12.969zm353.75 10.25-295.219 295.031 11.313 11.344 295.219-295.063zm-77.5-82.625L33.363 1343.516l11.313 11.344 295.219-295.063z" transform="translate(0 -1020.36)"/></svg>